<svg width="43" height="43" viewBox="0 0 43 43" fill="none" xmlns="http://www.w3.org/2000/svg">
<path d="M14.7812 36.2812C15.5234 36.2812 16.125 35.6796 16.125 34.9375C16.125 34.1954 15.5234 33.5938 14.7812 33.5938C14.0391 33.5938 13.4375 34.1954 13.4375 34.9375C13.4375 35.6796 14.0391 36.2812 14.7812 36.2812Z" stroke="#5D1C00" stroke-width="3" stroke-linecap="round" stroke-linejoin="round"/>
<path d="M33.5938 36.2812C34.3359 36.2812 34.9375 35.6796 34.9375 34.9375C34.9375 34.1954 34.3359 33.5938 33.5938 33.5938C32.8516 33.5938 32.25 34.1954 32.25 34.9375C32.25 35.6796 32.8516 36.2812 33.5938 36.2812Z" stroke="#5D1C00" stroke-width="3" stroke-linecap="round" stroke-linejoin="round"/>
<path d="M4.03125 6.71875H9.40625L13.4375 29.5625H34.9375" stroke="#5D1C00" stroke-width="3" stroke-linecap="round" stroke-linejoin="round"/>
<path d="M13.4375 24.1875H34.3866C34.5419 24.1876 34.6926 24.1339 34.8128 24.0354C34.933 23.9369 35.0153 23.7998 35.0458 23.6475L37.4646 11.5537C37.4841 11.4562 37.4817 11.3556 37.4576 11.2591C37.4335 11.1626 37.3883 11.0727 37.3252 10.9958C37.2622 10.9189 37.1828 10.8569 37.0929 10.8144C37.003 10.7719 36.9048 10.7499 36.8053 10.75H10.75" stroke="#5D1C00" stroke-width="3" stroke-linecap="round" stroke-linejoin="round"/>
</svg>
