<svg width="297" height="34" viewBox="0 0 297 34" fill="none" xmlns="http://www.w3.org/2000/svg">
<path d="M13.6193 26.72C9.53933 26.72 6.26333 25.484 3.79133 23.012C1.31933 20.516 0.0833282 17.312 0.0833282 13.4C0.0833282 9.488 1.31933 6.296 3.79133 3.824C6.26333 1.328 9.53933 0.079999 13.6193 0.079999C17.2673 0.079999 20.2313 0.979999 22.5113 2.78C24.8153 4.556 26.1353 6.944 26.4713 9.944H20.2793C19.9433 8.504 19.1993 7.376 18.0473 6.56C16.8953 5.72 15.4313 5.3 13.6553 5.3C11.3033 5.3 9.46733 6.032 8.14733 7.496C6.82733 8.936 6.16733 10.904 6.16733 13.4C6.16733 15.896 6.82733 17.876 8.14733 19.34C9.46733 20.78 11.3033 21.5 13.6553 21.5C15.4313 21.5 16.8953 21.092 18.0473 20.276C19.1993 19.436 19.9433 18.296 20.2793 16.856H26.4713C26.1353 19.856 24.8153 22.256 22.5113 24.056C20.2313 25.832 17.2673 26.72 13.6193 26.72ZM40.8393 8.18C45.0633 8.18 47.1753 10.544 47.1753 15.272V26H41.6313V17.072C41.6313 15.584 41.3913 14.504 40.9113 13.832C40.4553 13.16 39.6753 12.824 38.5713 12.824C36.3393 12.824 35.2233 14.192 35.2233 16.928V26H29.7153V0.799998H35.2233V11.168C36.2553 9.176 38.1273 8.18 40.8393 8.18ZM56.7665 6.128C56.1185 6.776 55.3025 7.1 54.3185 7.1C53.3345 7.1 52.5185 6.776 51.8705 6.128C51.2465 5.48 50.9345 4.688 50.9345 3.752C50.9345 2.792 51.2465 1.988 51.8705 1.34C52.5185 0.691999 53.3345 0.368 54.3185 0.368C55.3025 0.368 56.1185 0.704 56.7665 1.376C57.4145 2.024 57.7385 2.816 57.7385 3.752C57.7385 4.688 57.4145 5.48 56.7665 6.128ZM51.5825 26V8.648H57.0545V26H51.5825ZM61.6371 26V8.648H67.1451V11.168C68.1771 9.176 70.0491 8.18 72.7611 8.18C76.9851 8.18 79.0971 10.544 79.0971 15.272V26H73.5531V17.072C73.5531 15.584 73.3131 14.504 72.8331 13.832C72.3771 13.16 71.5971 12.824 70.4931 12.824C68.2611 12.824 67.1451 14.192 67.1451 16.928V26H61.6371ZM83.5043 26V8.648H89.0123V11.168C89.3963 10.28 90.0203 9.56 90.8843 9.008C91.7723 8.456 92.8043 8.18 93.9803 8.18C96.7163 8.18 98.5283 9.248 99.4163 11.384C99.8963 10.424 100.628 9.656 101.612 9.08C102.596 8.48 103.712 8.18 104.96 8.18C109.064 8.18 111.116 10.532 111.116 15.236V26H105.572V16.244C105.572 13.964 104.708 12.824 102.98 12.824C101.036 12.824 100.064 14.24 100.064 17.072V26H94.5203V16.208C94.5203 13.952 93.6683 12.824 91.9643 12.824C91.0043 12.824 90.2723 13.148 89.7683 13.796C89.2643 14.42 89.0123 15.512 89.0123 17.072V26H83.5043ZM122.373 26.468C119.853 26.468 117.861 25.616 116.397 23.912C114.933 22.208 114.201 20.012 114.201 17.324C114.201 14.684 114.957 12.5 116.469 10.772C117.981 9.044 119.973 8.18 122.445 8.18C123.669 8.18 124.761 8.444 125.721 8.972C126.681 9.5 127.401 10.22 127.881 11.132V8.648H133.353V26H127.881V23.552C127.401 24.416 126.657 25.124 125.649 25.676C124.665 26.204 123.573 26.468 122.373 26.468ZM123.957 21.896C125.277 21.896 126.297 21.464 127.017 20.6C127.737 19.736 128.097 18.644 128.097 17.324C128.097 16.028 127.737 14.948 127.017 14.084C126.297 13.22 125.277 12.788 123.957 12.788C122.709 12.788 121.701 13.208 120.933 14.048C120.189 14.888 119.817 15.98 119.817 17.324C119.817 18.668 120.189 19.772 120.933 20.636C121.701 21.476 122.709 21.896 123.957 21.896ZM149.662 8.648H155.17V25.46C155.17 28.148 154.342 30.236 152.686 31.724C151.126 33.068 149.002 33.74 146.314 33.74C143.506 33.74 141.37 33.14 139.906 31.94C138.49 30.74 137.77 29.216 137.746 27.368H143.29C143.41 28.928 144.418 29.708 146.314 29.708C148.546 29.708 149.662 28.412 149.662 25.82V23.12C148.654 25.04 146.818 26 144.154 26C142.018 26 140.41 25.352 139.33 24.056C138.274 22.76 137.746 20.984 137.746 18.728V8.648H143.254V17.9C143.254 20.396 144.274 21.644 146.314 21.644C147.394 21.644 148.222 21.26 148.798 20.492C149.374 19.7 149.662 18.62 149.662 17.252V8.648ZM166.635 26.468C164.115 26.468 162.123 25.616 160.659 23.912C159.195 22.208 158.463 20.012 158.463 17.324C158.463 14.684 159.219 12.5 160.731 10.772C162.243 9.044 164.235 8.18 166.707 8.18C167.931 8.18 169.023 8.444 169.983 8.972C170.943 9.5 171.663 10.22 172.143 11.132V8.648H177.615V26H172.143V23.552C171.663 24.416 170.919 25.124 169.911 25.676C168.927 26.204 167.835 26.468 166.635 26.468ZM168.219 21.896C169.539 21.896 170.559 21.464 171.279 20.6C171.999 19.736 172.359 18.644 172.359 17.324C172.359 16.028 171.999 14.948 171.279 14.084C170.559 13.22 169.539 12.788 168.219 12.788C166.971 12.788 165.963 13.208 165.195 14.048C164.451 14.888 164.079 15.98 164.079 17.324C164.079 18.668 164.451 19.772 165.195 20.636C165.963 21.476 166.971 21.896 168.219 21.896ZM191.122 26V0.799998H196.954V10.988H205.666V0.799998H211.498V26H205.666V15.992H196.954V26H191.122ZM224.499 26.468C221.547 26.468 219.195 25.616 217.443 23.912C215.715 22.208 214.851 20.012 214.851 17.324C214.851 14.636 215.715 12.44 217.443 10.736C219.195 9.032 221.547 8.18 224.499 8.18C227.427 8.18 229.755 9.032 231.483 10.736C233.235 12.44 234.111 14.636 234.111 17.324C234.111 20.012 233.235 22.208 231.483 23.912C229.755 25.616 227.427 26.468 224.499 26.468ZM224.499 21.824C225.771 21.824 226.779 21.416 227.523 20.6C228.267 19.76 228.639 18.668 228.639 17.324C228.639 15.98 228.267 14.9 227.523 14.084C226.779 13.244 225.771 12.824 224.499 12.824C223.203 12.824 222.183 13.244 221.439 14.084C220.719 14.9 220.359 15.98 220.359 17.324C220.359 18.668 220.719 19.76 221.439 20.6C222.183 21.416 223.203 21.824 224.499 21.824ZM237.278 26V8.648H242.786V11.168C243.818 9.176 245.69 8.18 248.402 8.18C252.626 8.18 254.738 10.544 254.738 15.272V26H249.194V17.072C249.194 15.584 248.954 14.504 248.474 13.832C248.018 13.16 247.238 12.824 246.134 12.824C243.902 12.824 242.786 14.192 242.786 16.928V26H237.278ZM276.209 16.424C276.209 17.168 276.161 17.972 276.065 18.836H263.249C263.297 19.964 263.681 20.828 264.401 21.428C265.121 22.028 266.093 22.328 267.317 22.328C269.021 22.328 270.101 21.812 270.557 20.78H275.957C275.693 22.484 274.757 23.864 273.149 24.92C271.565 25.952 269.621 26.468 267.317 26.468C264.341 26.468 262.001 25.664 260.297 24.056C258.617 22.448 257.777 20.204 257.777 17.324C257.777 14.492 258.617 12.26 260.297 10.628C262.001 8.996 264.281 8.18 267.137 8.18C269.825 8.18 272.009 8.948 273.689 10.484C275.369 11.996 276.209 13.976 276.209 16.424ZM263.249 15.416H270.773C270.725 13.064 269.501 11.888 267.101 11.888C265.925 11.888 264.989 12.212 264.293 12.86C263.621 13.484 263.273 14.336 263.249 15.416ZM291.096 8.648H296.604V25.46C296.604 28.148 295.776 30.236 294.12 31.724C292.56 33.068 290.436 33.74 287.748 33.74C284.94 33.74 282.804 33.14 281.34 31.94C279.924 30.74 279.204 29.216 279.18 27.368H284.724C284.844 28.928 285.852 29.708 287.748 29.708C289.98 29.708 291.096 28.412 291.096 25.82V23.12C290.088 25.04 288.252 26 285.588 26C283.452 26 281.844 25.352 280.764 24.056C279.708 22.76 279.18 20.984 279.18 18.728V8.648H284.688V17.9C284.688 20.396 285.708 21.644 287.748 21.644C288.828 21.644 289.656 21.26 290.232 20.492C290.808 19.7 291.096 18.62 291.096 17.252V8.648Z" fill="#6C3319"/>
</svg>
